<svg width="128" height="29" viewBox="0 0 128 29" fill="none" xmlns="http://www.w3.org/2000/svg">
<path d="M13.2539 17.5537C11.9056 18.766 10.3965 19.3721 8.72656 19.3721C6.27734 19.3721 4.33529 18.5433 2.90039 16.8857C1.46549 15.2282 0.748047 13.014 0.748047 10.2432C0.748047 8.51139 1.15007 6.90332 1.9541 5.41895C2.75814 3.93457 3.88379 2.75944 5.33105 1.89355C6.79069 1.02767 8.39876 0.594727 10.1553 0.594727C11.9365 0.594727 13.5446 1.04622 14.9795 1.94922C16.4268 2.83984 17.5524 4.10775 18.3564 5.75293C19.1605 7.38574 19.5749 9.27214 19.5996 11.4121V13.8057C19.5996 16.7868 19.012 19.3721 17.8369 21.5615C16.6742 23.751 15.0104 25.4333 12.8457 26.6084C10.681 27.7835 8.15755 28.3711 5.27539 28.3711H4.88574V23.3613L6.07324 23.3428C10.3779 23.1325 12.7715 21.2028 13.2539 17.5537ZM10.415 14.8633C11.7757 14.8633 12.7529 14.2757 13.3467 13.1006V10.5029C13.3467 8.77116 13.056 7.49089 12.4746 6.66211C11.8932 5.83333 11.1077 5.41895 10.1182 5.41895C9.23991 5.41895 8.50391 5.889 7.91016 6.8291C7.31641 7.76921 7.01953 8.90723 7.01953 10.2432C7.01953 11.6533 7.32259 12.779 7.92871 13.6201C8.53483 14.4489 9.36361 14.8633 10.415 14.8633ZM36.7998 28H30.5283V8.03516L24.3682 9.83496V5.08496L36.2246 0.984375H36.7998V28ZM45.3164 14.7891L46.9678 0.984375H62.7578V5.8457H52.0518L51.4395 11.208C51.8848 10.9482 52.4661 10.7194 53.1836 10.5215C53.9134 10.3236 54.6247 10.2246 55.3174 10.2246C58.0016 10.2246 60.0612 11.0225 61.4961 12.6182C62.9434 14.2015 63.667 16.4281 63.667 19.2979C63.667 21.0296 63.2773 22.6006 62.498 24.0107C61.7311 25.4085 60.6488 26.4847 59.251 27.2393C57.8532 27.9938 56.2018 28.3711 54.2969 28.3711C52.6022 28.3711 51.0127 28.0247 49.5283 27.332C48.0439 26.627 46.8812 25.6683 46.04 24.4561C45.1989 23.2314 44.7845 21.8522 44.7969 20.3184H51.0684C51.1302 21.3079 51.4456 22.0934 52.0146 22.6748C52.5837 23.2562 53.332 23.5469 54.2598 23.5469C56.3626 23.5469 57.4141 21.9883 57.4141 18.8711C57.4141 15.9889 56.1276 14.5479 53.5547 14.5479C52.0951 14.5479 51.0065 15.0179 50.2891 15.958L45.3164 14.7891ZM99.3848 28H92.9092V16.7188H83.3164V28H76.8037V0.984375H83.3164V11.709H92.9092V0.984375H99.3848V28ZM119.201 22.9531H110.276L108.718 28H101.76L111.668 0.984375H117.791L127.773 28H120.778L119.201 22.9531ZM111.835 17.9248H117.643L114.729 8.55469L111.835 17.9248Z" fill="url(#paint0_linear_49_5)"/>
<defs>
<linearGradient id="paint0_linear_49_5" x1="-1" y1="15.5" x2="128" y2="15.5" gradientUnits="userSpaceOnUse">
<stop stop-color="#1A77C7"/>
<stop offset="1" stop-color="#00B6DE"/>
</linearGradient>
</defs>
</svg>
