<svg width="21" height="16" viewBox="0 0 21 16" fill="none" xmlns="http://www.w3.org/2000/svg">
<g clip-path="url(#clip0_65_1209)">
<path d="M19.5289 6.85796H3.99129L8.60542 1.87555C8.82118 1.64218 8.92498 1.34131 8.89399 1.03914C8.863 0.736965 8.69976 0.458234 8.44018 0.264265C8.1806 0.0702951 7.84594 -0.0230245 7.50982 0.00483557C7.17371 0.0326956 6.86367 0.179453 6.64791 0.412823L0.292356 7.26935C0.249596 7.32389 0.211359 7.38118 0.177955 7.44076C0.177955 7.4979 0.177956 7.53219 0.088978 7.58932C0.031363 7.72035 0.00119627 7.85983 0 8.00071C0.00119627 8.1416 0.031363 8.28108 0.088978 8.41211C0.088978 8.46924 0.0889776 8.50353 0.177955 8.56066C0.211359 8.62025 0.249596 8.67754 0.292356 8.73208L6.64791 15.5886C6.76742 15.7176 6.91708 15.8213 7.08625 15.8924C7.25541 15.9635 7.43993 16.0003 7.62667 16C7.92366 16.0005 8.21149 15.9075 8.44018 15.7372C8.56889 15.6412 8.67528 15.5234 8.75327 15.3905C8.83125 15.2575 8.8793 15.112 8.89465 14.9623C8.91 14.8127 8.89235 14.6617 8.84272 14.5182C8.79309 14.3747 8.71245 14.2414 8.60542 14.1259L3.99129 9.14347H19.5289C19.866 9.14347 20.1893 9.02307 20.4277 8.80876C20.6661 8.59446 20.8 8.30379 20.8 8.00071C20.8 7.69764 20.6661 7.40697 20.4277 7.19267C20.1893 6.97836 19.866 6.85796 19.5289 6.85796Z" fill="#383838"/>
</g>
<defs>
<clipPath id="clip0_65_1209">
<rect width="20.8" height="16" fill="white"/>
</clipPath>
</defs>
</svg>
