<svg width="68" height="68" viewBox="0 0 68 68" fill="none" xmlns="http://www.w3.org/2000/svg">
<path d="M62.3333 64.6V57.5167C63.8208 56.6383 64.6992 54.995 64.6 53.2667C64.6 50.7592 63.0842 48.7333 61.2 48.7333C59.3158 48.7333 57.8 50.7592 57.8 53.2667C57.7008 54.995 58.5792 56.6383 60.0667 57.5167V64.6H52.1333V30.1608L45.3333 26.7608V32.8667H48.7333V35.1333H45.3333V39.6667H48.7333V41.9333H45.3333V46.4667H48.7333V48.7333H45.3333V53.2667H48.7333V55.5333H45.3333V60.0667H48.7333V62.3333H45.3333V64.6H43.0667V18.9833L29.4667 15.1017V19.2667H37.4V21.5333H29.4667V26.0667H37.4V28.3333H29.4667V32.8667H37.4V35.1333H29.4667V39.6667H37.4V41.9333H29.4667V46.4667H37.4V48.7333H29.4667V53.2667H37.4V55.5333H29.4667V60.0667H37.4V62.3333H29.4667V64.6H27.2V1.13333H6.8V5.66666H17V7.93333H6.8V12.4667H17V14.7333H6.8V19.2667H17V21.5333H6.8V26.0667H17V28.3333H6.8V32.8667H17V35.1333H6.8V39.6667H17V41.9333H6.8V46.4667H17V48.7333H6.8V53.2667H17V55.5333H6.8V60.0667H17V62.3333H6.8V64.6H0V66.8667H68V64.6H62.3333Z" fill="url(#paint0_linear_105_13)"/>
<defs>
<linearGradient id="paint0_linear_105_13" x1="0" y1="34" x2="68" y2="34" gradientUnits="userSpaceOnUse">
<stop stop-color="#1A77C7"/>
<stop offset="1" stop-color="#00B6DE"/>
</linearGradient>
</defs>
</svg>
