<svg width="62" height="62" viewBox="0 0 62 62" fill="none" xmlns="http://www.w3.org/2000/svg">
<path d="M31 5.16669C16.9957 5.16669 5.16663 16.9958 5.16663 31C5.16663 45.0043 16.9957 56.8334 31 56.8334C45.0042 56.8334 56.8333 45.0043 56.8333 31C56.8333 16.9958 45.0042 5.16669 31 5.16669ZM31 18.0834C35.4614 18.0834 38.75 21.3694 38.75 25.8334C38.75 30.2974 35.4614 33.5834 31 33.5834C26.5411 33.5834 23.25 30.2974 23.25 25.8334C23.25 21.3694 26.5411 18.0834 31 18.0834ZM17.8095 43.3277C20.1267 39.9177 23.9914 37.6444 28.4166 37.6444H33.5833C38.0111 37.6444 41.8732 39.9177 44.1905 43.3277C40.889 46.8617 36.2054 49.0834 31 49.0834C25.7945 49.0834 21.111 46.8617 17.8095 43.3277Z" fill="#BB131A"/>
</svg>
