<svg width="60" height="60" viewBox="0 0 60 60" fill="none" xmlns="http://www.w3.org/2000/svg">
<path d="M47.4001 18.2001L15.5001 4.2001C14.9001 3.9001 14.1001 3.9001 13.5001 4.2001C13.2001 4.3001 12.9001 4.5001 12.6001 4.8001C12.4001 5.0001 12.2001 5.3001 12.0001 5.6001L4.2001 23.8001C3.9001 24.4001 3.9001 25.1001 4.2001 25.8001C4.5001 26.4001 5.0001 27.0001 5.6001 27.2001L23.8001 35.0001L20.5001 43.0001H9.2001V36.2001C9.2001 35.6001 8.8001 35.2001 8.2001 35.2001H5.0001C4.4001 35.2001 4.0001 35.6001 4.0001 36.2001V55.0001C4.0001 55.6001 4.4001 56.0001 5.0001 56.0001H8.2001C8.8001 56.0001 9.2001 55.6001 9.2001 55.0001V48.2001H20.5001C22.7001 48.2001 24.6001 46.9001 25.4001 44.9001L28.6001 37.0001L37.5001 40.8001C38.1001 41.1001 38.9001 41.1001 39.5001 40.8001C40.1001 40.5001 40.7001 40.1001 40.9001 39.4001L48.7001 21.6001C49.0001 21.0001 49.0001 20.3001 48.7001 19.6001C48.6001 19.0001 48.1001 18.5001 47.4001 18.2001ZM51.2001 40.1001C51.0001 40.6001 50.4001 40.9001 49.9001 40.7001L46.9001 39.5001C46.4001 39.3001 46.1001 38.7001 46.3001 38.2001L50.7001 27.0001C50.9001 26.5001 51.5001 26.2001 52.0001 26.4001L55.0001 27.6001C55.5001 27.8001 55.8001 28.4001 55.6001 28.9001L51.2001 40.1001Z" fill="url(#paint0_linear_57_586)"/>
<defs>
<linearGradient id="paint0_linear_57_586" x1="4.0001" y1="30.0001" x2="55.7037" y2="30.0001" gradientUnits="userSpaceOnUse">
<stop stop-color="#1A77C7"/>
<stop offset="1" stop-color="#00B6DE"/>
</linearGradient>
</defs>
</svg>
