<svg width="60" height="60" viewBox="0 0 60 60" fill="none" xmlns="http://www.w3.org/2000/svg">
<path d="M21.7999 56.1001C21.3999 55.9001 21.0999 55.7001 20.8999 55.3001C20.6999 54.9001 20.5999 54.5001 20.6999 54.1001L24.0999 31.9001H14.9999C14.6999 31.9001 14.3999 31.8001 14.1999 31.7001C13.8999 31.6001 13.6999 31.4001 13.4999 31.2001C13.2999 31.0001 13.1999 30.7001 13.0999 30.4001C12.9999 30.1001 12.9999 29.8001 13.0999 29.5001L18.6999 5.1001C18.7999 4.7001 18.9999 4.3001 19.3999 4.0001C19.6999 3.7001 20.1999 3.6001 20.5999 3.6001H39.3999C39.6999 3.6001 39.9999 3.7001 40.1999 3.8001C40.4999 3.9001 40.6999 4.1001 40.8999 4.3001C41.0999 4.5001 41.1999 4.8001 41.2999 5.1001C41.3999 5.4001 41.3999 5.7001 41.2999 5.9001L37.9999 20.6001H46.8999C47.2999 20.6001 47.5999 20.7001 47.8999 20.9001C48.1999 21.1001 48.3999 21.4001 48.5999 21.7001C48.6999 22.0001 48.7999 22.3001 48.6999 22.7001C48.6999 23.0001 48.4999 23.3001 48.2999 23.6001L23.9999 55.4001C23.7999 55.6001 23.5999 55.8001 23.3999 56.0001C23.0999 56.1001 22.8999 56.2001 22.5999 56.2001C22.1999 56.2001 21.9999 56.2001 21.7999 56.1001Z" fill="url(#paint0_linear_57_588)"/>
<defs>
<linearGradient id="paint0_linear_57_588" x1="13.0746" y1="29.9995" x2="48.7236" y2="29.9995" gradientUnits="userSpaceOnUse">
<stop stop-color="#1A77C7"/>
<stop offset="1" stop-color="#00B6DE"/>
</linearGradient>
</defs>
</svg>
