<svg width="60" height="60" viewBox="0 0 60 60" fill="none" xmlns="http://www.w3.org/2000/svg">
<path d="M52.1305 50.3047V35.9297H34.6211V50.3047H31.5742V33.2344H41.8523V17.8621H38.4297V11.8426H34.55V7H31.5031V11.8336H27.6234V17.8531H24.2008V50.3047H21.1539V23.8816H7.86953V50.3047H4V53H56V50.3047H52.1305ZM34.9055 21.1863H37.9523V23.8816H34.9055V21.1863ZM34.9055 27.2059H37.9523V29.9012H34.9055V27.2059ZM15.9742 49.2445H12.9273V46.5492H15.9742V49.2445ZM15.9742 42.8027H12.9273V40.1074H15.9742V42.8027ZM15.9742 36.352H12.9273V33.6566H15.9742V36.352ZM15.9742 29.9012H12.9273V27.2059H15.9742V29.9012ZM31.1477 29.9012H28.1008V27.2059H31.1477V29.9012ZM31.1477 23.8816H28.1008V21.1863H31.1477V23.8816ZM31.5031 15.1668H34.55V17.8621H31.5031V15.1668ZM41.4766 50.3047H38.4297V39.4875H41.4766V50.3047ZM48.3219 50.3047H45.275V39.4875H48.3219V50.3047Z" fill="url(#paint0_linear_49_9)"/>
<defs>
<linearGradient id="paint0_linear_49_9" x1="4" y1="30" x2="56" y2="30" gradientUnits="userSpaceOnUse">
<stop stop-color="#176DBE"/>
<stop offset="1" stop-color="#00B6DE"/>
</linearGradient>
</defs>
</svg>
