<svg width="13" height="13" viewBox="0 0 13 13" fill="none" xmlns="http://www.w3.org/2000/svg">
<path d="M5.48438 0H7.51562C7.85332 0 8.125 0.27168 8.125 0.609375V4.875H10.3518C10.8037 4.875 11.0297 5.4209 10.7098 5.74082L6.84785 9.60527C6.65742 9.7957 6.34512 9.7957 6.15469 9.60527L2.2877 5.74082C1.96777 5.4209 2.19375 4.875 2.6457 4.875H4.875V0.609375C4.875 0.27168 5.14668 0 5.48438 0ZM13 9.54688V12.3906C13 12.7283 12.7283 13 12.3906 13H0.609375C0.27168 13 0 12.7283 0 12.3906V9.54688C0 9.20918 0.27168 8.9375 0.609375 8.9375H4.33418L5.57832 10.1816C6.08867 10.692 6.91133 10.692 7.42168 10.1816L8.66582 8.9375H12.3906C12.7283 8.9375 13 9.20918 13 9.54688ZM9.85156 11.7812C9.85156 11.502 9.62305 11.2734 9.34375 11.2734C9.06445 11.2734 8.83594 11.502 8.83594 11.7812C8.83594 12.0605 9.06445 12.2891 9.34375 12.2891C9.62305 12.2891 9.85156 12.0605 9.85156 11.7812ZM11.4766 11.7812C11.4766 11.502 11.248 11.2734 10.9688 11.2734C10.6895 11.2734 10.4609 11.502 10.4609 11.7812C10.4609 12.0605 10.6895 12.2891 10.9688 12.2891C11.248 12.2891 11.4766 12.0605 11.4766 11.7812Z" fill="#1A77C7"/>
</svg>
