<svg width="68" height="68" viewBox="0 0 68 68" fill="none" xmlns="http://www.w3.org/2000/svg">
<path d="M62.3333 8.5H45.3333V21.25H22.6667V8.5H5.66667C2.53819 8.5 0 11.3555 0 14.875V61.625C0 65.1445 2.53819 68 5.66667 68H62.3333C65.4618 68 68 65.1445 68 61.625V14.875C68 11.3555 65.4618 8.5 62.3333 8.5ZM34 29.75C38.1674 29.75 41.5556 33.5617 41.5556 38.25C41.5556 42.9383 38.1674 46.75 34 46.75C29.8326 46.75 26.4444 42.9383 26.4444 38.25C26.4444 33.5617 29.8326 29.75 34 29.75ZM45.0146 59.5H22.9854C21.7576 59.5 20.766 58.1719 21.1437 56.8703C22.1236 53.4703 24.9687 51 28.3333 51H29.3014C30.7535 51.6773 32.3354 52.0625 34 52.0625C35.6646 52.0625 37.2583 51.6773 38.6986 51H39.6667C43.0194 51 45.8646 53.457 46.8562 56.8703C47.234 58.1719 46.2424 59.5 45.0146 59.5ZM41.5556 4.25C41.5556 1.89922 39.8674 0 37.7778 0H30.2222C28.1326 0 26.4444 1.89922 26.4444 4.25V17H41.5556V4.25Z" fill="url(#paint0_linear_105_22)"/>
<defs>
<linearGradient id="paint0_linear_105_22" x1="-1.2666e-07" y1="34" x2="68" y2="34" gradientUnits="userSpaceOnUse">
<stop stop-color="#1A77C7"/>
<stop offset="1" stop-color="#00B6DE"/>
</linearGradient>
</defs>
</svg>
