<svg width="68" height="68" viewBox="0 0 68 68" fill="none" xmlns="http://www.w3.org/2000/svg">
<path d="M21.0021 34C17.1771 34.1265 14.0486 35.7455 11.6167 38.8571H6.87083C4.93472 38.8571 3.30556 38.3449 1.98333 37.3203C0.661111 36.2958 0 34.7969 0 32.8237C0 23.8936 1.46389 19.4286 4.39167 19.4286C4.53333 19.4286 5.04688 19.6942 5.93229 20.2254C6.81771 20.7567 7.96875 21.2943 9.38542 21.8382C10.8021 22.3821 12.2069 22.654 13.6 22.654C15.1819 22.654 16.7521 22.3631 18.3104 21.7812C18.1924 22.7173 18.1333 23.5521 18.1333 24.2857C18.1333 27.8021 19.0896 31.0402 21.0021 34ZM58.9333 58.1719C58.9333 61.2076 58.0715 63.6045 56.3479 65.3627C54.6243 67.1209 52.334 68 49.4771 68H18.5229C15.666 68 13.3757 67.1209 11.6521 65.3627C9.92847 63.6045 9.06667 61.2076 9.06667 58.1719C9.06667 56.8311 9.10799 55.5219 9.19063 54.2444C9.27326 52.9669 9.43854 51.5882 9.68646 50.1083C9.93437 48.6283 10.2472 47.256 10.625 45.9911C11.0028 44.7262 11.5104 43.4929 12.1479 42.2913C12.7854 41.0897 13.5174 40.0651 14.3438 39.2176C15.1701 38.3702 16.1795 37.6935 17.3719 37.1875C18.5642 36.6815 19.8806 36.4286 21.3208 36.4286C21.5569 36.4286 22.0646 36.7005 22.8438 37.2444C23.6229 37.7883 24.4847 38.3955 25.4292 39.0658C26.3736 39.7362 27.6368 40.3434 29.2188 40.8873C30.8007 41.4312 32.3944 41.7031 34 41.7031C35.6056 41.7031 37.1993 41.4312 38.7812 40.8873C40.3632 40.3434 41.6264 39.7362 42.5708 39.0658C43.5153 38.3955 44.3771 37.7883 45.1562 37.2444C45.9354 36.7005 46.4431 36.4286 46.6792 36.4286C48.1194 36.4286 49.4358 36.6815 50.6281 37.1875C51.8205 37.6935 52.8299 38.3702 53.6562 39.2176C54.4826 40.0651 55.2146 41.0897 55.8521 42.2913C56.4896 43.4929 56.9972 44.7262 57.375 45.9911C57.7528 47.256 58.0656 48.6283 58.3135 50.1083C58.5615 51.5882 58.7267 52.9669 58.8094 54.2444C58.892 55.5219 58.9333 56.8311 58.9333 58.1719ZM22.6667 9.71429C22.6667 12.3958 21.7812 14.6853 20.0104 16.5826C18.2396 18.4799 16.1028 19.4286 13.6 19.4286C11.0972 19.4286 8.96042 18.4799 7.18958 16.5826C5.41875 14.6853 4.53333 12.3958 4.53333 9.71429C4.53333 7.03274 5.41875 4.7433 7.18958 2.84598C8.96042 0.948661 11.0972 0 13.6 0C16.1028 0 18.2396 0.948661 20.0104 2.84598C21.7812 4.7433 22.6667 7.03274 22.6667 9.71429ZM47.6 24.2857C47.6 28.308 46.2719 31.7422 43.6156 34.5882C40.9594 37.4342 37.7542 38.8571 34 38.8571C30.2458 38.8571 27.0406 37.4342 24.3844 34.5882C21.7281 31.7422 20.4 28.308 20.4 24.2857C20.4 20.2634 21.7281 16.8292 24.3844 13.9833C27.0406 11.1373 30.2458 9.71429 34 9.71429C37.7542 9.71429 40.9594 11.1373 43.6156 13.9833C46.2719 16.8292 47.6 20.2634 47.6 24.2857ZM68 32.8237C68 34.7969 67.3389 36.2958 66.0167 37.3203C64.6944 38.3449 63.0653 38.8571 61.1292 38.8571H56.3833C53.9514 35.7455 50.8229 34.1265 46.9979 34C48.9104 31.0402 49.8667 27.8021 49.8667 24.2857C49.8667 23.5521 49.8076 22.7173 49.6896 21.7812C51.2479 22.3631 52.8181 22.654 54.4 22.654C55.7931 22.654 57.1979 22.3821 58.6146 21.8382C60.0312 21.2943 61.1823 20.7567 62.0677 20.2254C62.9531 19.6942 63.4667 19.4286 63.6083 19.4286C66.5361 19.4286 68 23.8936 68 32.8237ZM63.4667 9.71429C63.4667 12.3958 62.5812 14.6853 60.8104 16.5826C59.0396 18.4799 56.9028 19.4286 54.4 19.4286C51.8972 19.4286 49.7604 18.4799 47.9896 16.5826C46.2188 14.6853 45.3333 12.3958 45.3333 9.71429C45.3333 7.03274 46.2188 4.7433 47.9896 2.84598C49.7604 0.948661 51.8972 0 54.4 0C56.9028 0 59.0396 0.948661 60.8104 2.84598C62.5812 4.7433 63.4667 7.03274 63.4667 9.71429Z" fill="url(#paint0_linear_105_35)"/>
<defs>
<linearGradient id="paint0_linear_105_35" x1="5.0664e-07" y1="34" x2="68.1333" y2="34" gradientUnits="userSpaceOnUse">
<stop stop-color="#1A77C7"/>
<stop offset="1" stop-color="#00B6DE"/>
</linearGradient>
</defs>
</svg>
