<svg width="68" height="68" viewBox="0 0 68 68" fill="none" xmlns="http://www.w3.org/2000/svg">
<g clip-path="url(#clip0_105_40)">
<path d="M64.1773 15.4901C67.0548 30.431 63.9131 46.6963 63.8689 46.9466C63.8769 46.8673 63.9471 45.6985 63.9471 45.6985C64.8697 35.6616 62.6212 30.0008 62.6212 30.0008C64.1388 38.6843 61.3383 43.6355 59.696 45.6985C59.0807 46.4707 58.6227 47.1298 58.6227 47.1298C58.5752 47.1298 58.5332 46.0877 58.498 45.6985C57.3943 33.4431 62.62 17.8323 62.62 17.8323C59.2766 21.8331 57.2513 34.8528 56.3605 42.0166C57.4226 29.9442 55.667 24.3842 55.667 24.3842C56.3605 34.4806 54.6185 42.7673 53.8875 45.6985C53.7039 46.437 53.5815 47.1298 53.5815 47.1298C53.4965 47.1298 53.4207 46.1182 53.348 45.6985C52.0923 38.4006 52.7123 20.4048 52.7123 20.4048C51.4656 24.6024 50.7153 33.2278 50.3142 39.4885C50.3166 28.8748 47.8446 22.5106 47.8446 22.5106C50.4525 36.0843 46.9754 44.9768 46.9754 44.9768C47.67 32.8083 45.2369 29.7659 45.2369 29.7659C47.0343 34.8026 42.9771 44.745 42.9771 44.745C41.4131 31.6397 45.2369 13.1496 45.2369 13.1496C42.9215 17.5424 41.5625 28.5376 40.8508 36.5314C40.7749 26.377 37.6254 22.5106 37.6254 22.5106C40.7908 32.8083 37.589 45.4453 37.589 45.4453C37.9371 33.2766 35.676 27.4237 35.676 27.4237C35.9603 32.7962 32.7439 42.4043 31.5744 45.6971C31.3171 46.4188 31.1562 47.1284 31.1562 47.1284C31.0893 47.1284 31.0327 46.1014 30.9805 45.6971C29.812 36.6581 32.1989 17.361 32.1989 17.361C29.463 20.2264 27.7902 40.6054 27.4127 45.6987C27.3583 46.4327 27.3312 47.13 27.3312 47.13C27.3153 47.13 27.2972 46.0863 27.2802 45.6987C26.9198 37.7874 26.9595 29.0091 26.9595 29.0091C25.8092 30.709 24.9025 47.1284 24.8968 47.1284L24.9274 45.6971C25.6754 25.2525 22.9849 18.5328 22.9849 18.5328C24.3017 28.5773 21.924 41.7712 21.1398 45.6971C20.9925 46.4371 20.8996 47.1284 20.8996 47.1284C20.7272 47.1284 20.5799 46.1228 20.4507 45.6971C18.6249 39.6702 20.8996 25.7866 20.8996 25.7866C18.8006 29.4181 18.0832 35.8295 17.8497 40.6282C18.0424 16.0364 16.5532 8 16.5532 8C17.6243 16.8681 15.3236 40.256 14.7615 45.6971C14.7287 46.0177 14.732 45.984 14.7615 45.6971H14.7162C15.1321 37.418 13.0763 22.5106 13.0763 22.5106C13.0763 29.0091 11.9679 41.8047 11.6177 45.6971C11.5519 46.4295 11.5123 47.1284 11.5123 47.1284C11.3344 46.6508 11.2482 46.0909 11.1303 45.6971C8.48166 35.1032 11.5123 17.361 11.5123 17.361C7.47556 24.6085 7.03917 41.2003 6.99722 45.6969C6.99378 46.0433 6.99271 46.138 6.99722 45.6969C6.99722 45.6969 7.20344 47.4181 6.63799 45.6969C4.6989 40.0559 7.10376 22.5104 7.10376 22.5104C4.72142 25.9192 3.75253 41.3498 3.53837 45.6969C3.50329 46.4217 3.45908 47.1282 3.45908 47.1282C3.40006 47.1282 3.33559 46.0831 3.28676 45.6969C1.3952 30.7637 7.00065 14.2236 7.00065 14.2236C1.43941 18.9049 0 47.1266 0 47.1266V60.0002H68V45.6969C68.0102 19.5015 64.1773 15.4901 64.1773 15.4901Z" fill="url(#paint0_linear_105_40)"/>
</g>
<defs>
<linearGradient id="paint0_linear_105_40" x1="-5.06412e-07" y1="34" x2="68" y2="34" gradientUnits="userSpaceOnUse">
<stop stop-color="#1A77C7"/>
<stop offset="1" stop-color="#00B6DE"/>
</linearGradient>
<clipPath id="clip0_105_40">
<rect width="68" height="68" fill="white"/>
</clipPath>
</defs>
</svg>
