<svg width="68" height="68" viewBox="0 0 68 68" fill="none" xmlns="http://www.w3.org/2000/svg">
<path d="M39.6556 0C31.5648 0 25.0176 6.54766 25.0176 14.6094C25.0176 22.6711 31.5648 29.2188 39.6556 29.2188C47.7331 29.2188 54.2935 22.6711 54.2935 14.6094C54.2935 6.54766 47.7464 0 39.6556 0ZM40.8266 21.6617V23.375C40.8266 24.2516 40.0548 24.9555 39.1499 24.8227C38.4313 24.7164 37.899 24.0656 37.899 23.3352V21.675C36.9276 21.343 36.0094 20.7055 35.2243 19.7758C34.6521 19.0984 34.8117 18.0492 35.5969 17.5711C36.209 17.1992 37.0207 17.3719 37.4865 17.9164C38.0853 18.607 38.7507 18.9922 39.3628 18.9922C40.2278 18.9922 40.9198 18.2484 40.8133 17.3586C40.7335 16.6148 40.0814 16.0703 39.3362 16.0703C36.9276 16.057 34.9714 14.0914 34.9714 11.6875C34.9714 9.78828 36.1957 8.15469 37.899 7.55703V5.88359C37.899 5.15312 38.418 4.50234 39.1499 4.39609C40.0548 4.26328 40.8266 4.96719 40.8266 5.84375V7.54375C41.492 7.76953 42.2372 8.16797 42.9824 8.88516C43.6211 9.50938 43.5812 10.5586 42.8227 11.1164C42.2372 11.5414 41.4254 11.4484 40.9065 10.957C40.4008 10.4789 39.8685 10.2266 39.3628 10.2266C38.4978 10.2266 37.8059 10.9703 37.9123 11.8602C37.9922 12.6039 38.6442 13.1484 39.3894 13.1484C41.798 13.1617 43.7542 15.1273 43.7542 17.5312C43.7542 19.4305 42.5299 21.0641 40.8266 21.6617ZM20.2935 62.0898L14.2787 68L0 53.643L5.89511 47.7461C6.37417 47.268 7.10607 47.175 7.69159 47.5469C7.94442 47.693 7.22583 47.0422 20.2802 60.0578C20.8658 60.6289 20.8258 61.5586 20.2935 62.0898ZM67.308 35.6867L54.2669 51.2391C52.364 53.0586 49.8622 54.068 47.2274 54.068H27.9053C26.0157 54.068 24.2192 54.7852 22.8618 56.1L21.6243 57.2953L10.2466 45.9266C12.908 40.9461 17.8982 38.1039 24.1127 38.1039C26.335 38.1039 28.4908 38.5555 30.5135 39.432C30.6998 39.5117 30.8994 39.5516 31.099 39.5516H47.6C49.1703 39.5516 50.501 40.8398 50.501 42.4469C50.501 44.0406 49.1969 45.3422 47.6 45.3422H35.7432C34.9448 45.3422 34.2928 45.993 34.2928 46.7898C34.2928 47.5867 34.9448 48.2375 35.7432 48.2375H47.6C50.807 48.2375 53.4153 45.6344 53.4153 42.4336C53.4153 42.1813 53.402 41.9289 53.362 41.6766C61.6524 33.1633 62.8235 31.968 62.8767 31.9148C63.9147 30.693 65.7511 30.5469 66.9753 31.5695C68.1996 32.632 68.346 34.4648 67.308 35.6867Z" fill="url(#paint0_linear_105_11)"/>
<defs>
<linearGradient id="paint0_linear_105_11" x1="0" y1="34" x2="68" y2="34" gradientUnits="userSpaceOnUse">
<stop stop-color="#1A77C7"/>
<stop offset="1" stop-color="#00B6DE"/>
</linearGradient>
</defs>
</svg>
