<svg width="60" height="60" viewBox="0 0 60 60" fill="none" xmlns="http://www.w3.org/2000/svg">
<path d="M31.1001 7C31.0001 6.8 30.8001 6.7 30.6001 6.6C30.4001 6.5 30.2001 6.5 30.0001 6.5C29.8001 6.5 29.6001 6.5 29.4001 6.6C29.2001 6.7 29.1001 6.8 28.9001 7C25.2001 11.3 13.1001 26.3 13.1001 37.5C13.1001 47.9 19.6001 54.4 30.0001 54.4C40.4001 54.4 46.9001 47.9 46.9001 37.5C46.9001 26.4 34.8001 11.4 31.1001 7ZM31.9001 48.3C31.7001 48.3 31.5001 48.2 31.3001 48.1C31.1001 48 30.9001 47.8 30.8001 47.7C30.7001 47.5 30.6001 47.3 30.6001 47.1C30.6001 46.9 30.6001 46.6 30.7001 46.4C30.8001 46.1 31.0001 45.9 31.2001 45.7C31.4001 45.5 31.7001 45.4 32.0001 45.4C33.9001 45.4 35.6001 44.7 37.0001 43.3C38.4001 41.9 39.1001 40.2 39.1001 38.3C39.1001 38 39.2001 37.7 39.4001 37.5C39.6001 37.3 39.8001 37.1 40.1001 37C40.3001 36.9 40.5001 36.9 40.8001 36.9C41.0001 36.9 41.2001 37 41.4001 37.1C41.6001 37.2 41.7001 37.4 41.8001 37.6C41.9001 37.8 42.0001 38 42.0001 38.2C42.0001 40.8 41.0001 43.3 39.1001 45.2C37.0001 47.2 34.5001 48.3 31.9001 48.3Z" fill="url(#paint0_linear_57_580)"/>
<defs>
<linearGradient id="paint0_linear_57_580" x1="13.1251" y1="30.4644" x2="46.8751" y2="30.4644" gradientUnits="userSpaceOnUse">
<stop stop-color="#1A77C7"/>
<stop offset="1" stop-color="#00B6DE"/>
</linearGradient>
</defs>
</svg>
