<svg width="14" height="14" viewBox="0 0 14 14" fill="none" xmlns="http://www.w3.org/2000/svg">
<path d="M13.125 4.375V2.1123C13.125 1.99737 13.1023 1.88357 13.0583 1.7774C13.0143 1.67122 12.9498 1.57476 12.8685 1.49352L11.6312 0.256211C11.4672 0.0921922 11.2447 3.50446e-05 11.0127 0L4.375 0C4.14294 0 3.92038 0.0921872 3.75628 0.256282C3.59219 0.420376 3.5 0.642936 3.5 0.875V13.125C3.5 13.3571 3.59219 13.5796 3.75628 13.7437C3.92038 13.9078 4.14294 14 4.375 14H13.125C13.3571 14 13.5796 13.9078 13.7437 13.7437C13.9078 13.5796 14 13.3571 14 13.125V5.25C14 5.01794 13.9078 4.79538 13.7437 4.63128C13.5796 4.46719 13.3571 4.375 13.125 4.375ZM7.875 11.8125C7.875 11.9285 7.82891 12.0398 7.74686 12.1219C7.66481 12.2039 7.55353 12.25 7.4375 12.25H6.5625C6.44647 12.25 6.33519 12.2039 6.25314 12.1219C6.17109 12.0398 6.125 11.9285 6.125 11.8125V10.9375C6.125 10.8215 6.17109 10.7102 6.25314 10.6281C6.33519 10.5461 6.44647 10.5 6.5625 10.5H7.4375C7.55353 10.5 7.66481 10.5461 7.74686 10.6281C7.82891 10.7102 7.875 10.8215 7.875 10.9375V11.8125ZM7.875 8.3125C7.875 8.42853 7.82891 8.53981 7.74686 8.62186C7.66481 8.70391 7.55353 8.75 7.4375 8.75H6.5625C6.44647 8.75 6.33519 8.70391 6.25314 8.62186C6.17109 8.53981 6.125 8.42853 6.125 8.3125V7.4375C6.125 7.32147 6.17109 7.21019 6.25314 7.12814C6.33519 7.04609 6.44647 7 6.5625 7H7.4375C7.55353 7 7.66481 7.04609 7.74686 7.12814C7.82891 7.21019 7.875 7.32147 7.875 7.4375V8.3125ZM11.375 11.8125C11.375 11.9285 11.3289 12.0398 11.2469 12.1219C11.1648 12.2039 11.0535 12.25 10.9375 12.25H10.0625C9.94647 12.25 9.83519 12.2039 9.75314 12.1219C9.67109 12.0398 9.625 11.9285 9.625 11.8125V10.9375C9.625 10.8215 9.67109 10.7102 9.75314 10.6281C9.83519 10.5461 9.94647 10.5 10.0625 10.5H10.9375C11.0535 10.5 11.1648 10.5461 11.2469 10.6281C11.3289 10.7102 11.375 10.8215 11.375 10.9375V11.8125ZM11.375 8.3125C11.375 8.42853 11.3289 8.53981 11.2469 8.62186C11.1648 8.70391 11.0535 8.75 10.9375 8.75H10.0625C9.94647 8.75 9.83519 8.70391 9.75314 8.62186C9.67109 8.53981 9.625 8.42853 9.625 8.3125V7.4375C9.625 7.32147 9.67109 7.21019 9.75314 7.12814C9.83519 7.04609 9.94647 7 10.0625 7H10.9375C11.0535 7 11.1648 7.04609 11.2469 7.12814C11.3289 7.21019 11.375 7.32147 11.375 7.4375V8.3125ZM11.375 5.25H5.25V1.75H9.625V3.0625C9.625 3.17853 9.67109 3.28981 9.75314 3.37186C9.83519 3.45391 9.94647 3.5 10.0625 3.5H11.375V5.25ZM1.75 3.5H0.875C0.642936 3.5 0.420376 3.59219 0.256282 3.75628C0.0921872 3.92038 0 4.14294 0 4.375L0 13.125C0 13.3571 0.0921872 13.5796 0.256282 13.7437C0.420376 13.9078 0.642936 14 0.875 14H1.75C1.98206 14 2.20462 13.9078 2.36872 13.7437C2.53281 13.5796 2.625 13.3571 2.625 13.125V4.375C2.625 4.14294 2.53281 3.92038 2.36872 3.75628C2.20462 3.59219 1.98206 3.5 1.75 3.5Z" fill="#1A77C7"/>
</svg>
