<svg width="14" height="14" viewBox="0 0 14 14" fill="none" xmlns="http://www.w3.org/2000/svg">
<g clip-path="url(#clip0_10_95)">
<path d="M6.31382 6.92813C6.67938 7.17185 7.32082 7.17187 7.68646 6.9281C7.68651 6.92807 7.6866 6.92802 7.68665 6.92799L13.9174 2.77413C13.713 2.18306 13.1513 1.75726 12.4916 1.75726H1.50856C0.848886 1.75726 0.28716 2.18306 0.0827637 2.77413L6.31363 6.92802C6.31371 6.92807 6.31377 6.92807 6.31382 6.92813Z" fill="#F15C5C"/>
<path d="M8.14155 7.61048C8.14147 7.61054 8.14141 7.61059 8.14136 7.61062C7.82138 7.82393 7.41062 7.9306 6.99999 7.9306C6.58929 7.9306 6.17869 7.82396 5.85869 7.61059C5.85863 7.61056 5.8586 7.61054 5.85855 7.61051L0 3.70483V10.7342C0 11.5659 0.676681 12.2426 1.50846 12.2426H12.4916C13.3233 12.2426 14 11.5659 14 10.7342V3.70483L8.14155 7.61048Z" fill="#F15C5C"/>
</g>
<defs>
<clipPath id="clip0_10_95">
<rect width="14" height="14" fill="white"/>
</clipPath>
</defs>
</svg>
