<svg width="60" height="60" viewBox="0 0 60 60" fill="none" xmlns="http://www.w3.org/2000/svg">
<path d="M7 33.6671V51.0946L15.7148 42.3853L7 33.6671ZM23.3965 27.9687C22.2465 26.4048 21.4289 24.6612 20.9527 22.7917C20.7641 22.0367 20.6293 21.2638 20.5574 20.4818H19.9465L15.5262 24.9039L24.3578 33.739L26.1008 31.9953L23.3965 27.9687ZM13.6215 26.8183L8.78789 31.6538L17.6195 40.4889L22.4531 35.6534L13.6215 26.8183ZM7 20.4818V29.6225L16.1371 20.4818H7ZM49.577 42.4752L53 45.8996V39.0508L49.577 42.4752ZM47.6723 44.3806L39.0562 53H53V49.7104L47.6723 44.3806ZM50.2687 20.4818C50.1969 21.2638 50.0711 22.0367 49.8734 22.7917C49.4062 24.6432 48.2742 26.7194 47.4477 27.9418L47.4027 28.0137L44.1773 32.8042L35.4086 45.8187L27.6371 34.2782L8.91367 53H35.2469L53 35.2399V20.4818H50.2687ZM35.4086 7C28.6973 7 23.2348 12.4646 23.2348 19.1786C23.2348 20.1942 23.3605 21.1919 23.6031 22.1626C23.9895 23.6905 24.6543 25.1106 25.5977 26.3869L35.4086 40.9562L42.623 30.2427L45.1926 26.4228L45.2285 26.3689C45.9023 25.3802 46.8187 23.6815 47.2051 22.1716C47.4477 21.2009 47.5734 20.1942 47.5734 19.1876C47.5824 12.4646 42.1199 7 35.4086 7ZM39.9098 22.7018C38.7867 24.032 37.1516 24.796 35.4176 24.796C33.6836 24.796 32.0395 24.032 30.9254 22.7018C30.0359 21.6413 29.5418 20.3021 29.5418 18.9179C29.5418 15.6733 32.1742 13.0399 35.4176 13.0399C38.6609 13.0399 41.2934 15.6733 41.2934 18.9179C41.2844 20.3021 40.7992 21.6413 39.9098 22.7018Z" fill="url(#paint0_linear_49_7)"/>
<defs>
<linearGradient id="paint0_linear_49_7" x1="7" y1="30" x2="53" y2="30" gradientUnits="userSpaceOnUse">
<stop stop-color="#1A77C7"/>
<stop offset="1" stop-color="#00B6DE"/>
</linearGradient>
</defs>
</svg>
