<svg width="7" height="8" viewBox="0 0 7 8" fill="none" xmlns="http://www.w3.org/2000/svg">
<path d="M1.51165 8C1.29236 7.99877 1.07581 7.95334 0.876182 7.86668C0.660279 7.77583 0.476332 7.62759 0.346311 7.43964C0.21629 7.2517 0.145691 7.032 0.142944 6.80678V1.194C0.145691 0.968782 0.21629 0.749082 0.346311 0.561137C0.476332 0.373191 0.660279 0.224943 0.876182 0.134099C1.1246 0.022088 1.40099 -0.0210539 1.67385 0.00958902C1.94671 0.040232 2.20506 0.143427 2.41947 0.307415L5.98091 3.11381C6.12057 3.21994 6.23336 3.35478 6.31088 3.50827C6.3884 3.66177 6.42866 3.82998 6.42866 4.00039C6.42866 4.17079 6.3884 4.339 6.31088 4.4925C6.23336 4.646 6.12057 4.78083 5.98091 4.88697L2.41947 7.69336C2.16275 7.89209 1.84218 8.00038 1.51165 8ZM1.51165 1.33398V6.60014L4.90549 4.00039L1.51165 1.33398Z" fill="#333333"/>
</svg>
