<svg width="42" height="42" viewBox="0 0 42 42" fill="none" xmlns="http://www.w3.org/2000/svg">
<path d="M10.5 0C9.05625 0 7.875 1.18125 7.875 2.625V39.375C7.875 40.8187 9.05625 42 10.5 42H36.75C38.1938 42 39.375 40.8187 39.375 39.375V10.5L28.875 0H10.5Z" fill="#E2E5E7"/>
<path d="M31.5 10.5H39.375L28.875 0V7.875C28.875 9.31875 30.0562 10.5 31.5 10.5Z" fill="#B0B7BD"/>
<path d="M39.375 18.375L31.5 10.5H39.375V18.375Z" fill="#CAD1D8"/>
<path d="M34.125 34.125C34.125 34.8469 33.5344 35.4375 32.8125 35.4375H3.9375C3.21562 35.4375 2.625 34.8469 2.625 34.125V21C2.625 20.2781 3.21562 19.6875 3.9375 19.6875H32.8125C33.5344 19.6875 34.125 20.2781 34.125 21V34.125Z" fill="#F15642"/>
<path d="M8.34619 24.8676C8.34619 24.5211 8.61919 24.1431 9.05888 24.1431H11.4831C12.8481 24.1431 14.0766 25.0566 14.0766 26.8074C14.0766 28.4664 12.8481 29.3904 11.4831 29.3904H9.73088V30.7764C9.73088 31.2384 9.43688 31.4996 9.05888 31.4996C8.71238 31.4996 8.34619 31.2384 8.34619 30.7764V24.8676ZM9.73088 25.4648V28.0793H11.4831C12.1866 28.0793 12.7431 27.4584 12.7431 26.8074C12.7431 26.0738 12.1866 25.4648 11.4831 25.4648H9.73088Z" fill="white"/>
<path d="M16.132 31.4994C15.7855 31.4994 15.4075 31.3104 15.4075 30.8497V24.8883C15.4075 24.5116 15.7855 24.2373 16.132 24.2373H18.5352C23.331 24.2373 23.226 31.4994 18.6297 31.4994H16.132ZM16.7935 25.5183V30.2197H18.5352C21.3688 30.2197 21.4948 25.5183 18.5352 25.5183H16.7935Z" fill="white"/>
<path d="M24.9265 25.6026V27.2708H27.6027C27.9807 27.2708 28.3587 27.6488 28.3587 28.015C28.3587 28.3615 27.9807 28.645 27.6027 28.645H24.9265V30.8487C24.9265 31.2162 24.6653 31.4984 24.2978 31.4984C23.8358 31.4984 23.5536 31.2162 23.5536 30.8487V24.8873C23.5536 24.5106 23.8371 24.2363 24.2978 24.2363H27.982C28.444 24.2363 28.717 24.5106 28.717 24.8873C28.717 25.2233 28.444 25.6013 27.982 25.6013H24.9265V25.6026Z" fill="white"/>
<path d="M32.8125 35.4375H7.875V36.75H32.8125C33.5344 36.75 34.125 36.1594 34.125 35.4375V34.125C34.125 34.8469 33.5344 35.4375 32.8125 35.4375Z" fill="#CAD1D8"/>
</svg>
