<svg width="14" height="14" viewBox="0 0 14 14" fill="none" xmlns="http://www.w3.org/2000/svg">
<g clip-path="url(#clip0_10_98)">
<path d="M11.9486 2.04914C9.21457 -0.684114 4.78239 -0.683457 2.04914 2.05064C-0.684114 4.78475 -0.683457 9.2169 2.05064 11.9501C4.78475 14.6834 9.21689 14.6827 11.9501 11.9486C13.2628 10.6356 14.0001 8.85481 13.9996 6.99814C13.9993 5.14177 13.2615 3.36159 11.9486 2.04914ZM10.6009 9.75056C10.6006 9.75086 10.6003 9.75119 10.6 9.75149V9.74917L10.2453 10.1015C9.7866 10.566 9.11857 10.7571 8.48362 10.6055C7.84391 10.4343 7.23579 10.1617 6.68229 9.79817C6.16807 9.46952 5.69152 9.08534 5.26129 8.65249C4.86544 8.25953 4.5098 7.82805 4.19962 7.36449C3.86034 6.86569 3.59179 6.32231 3.40162 5.74982C3.1836 5.07727 3.36427 4.33929 3.86829 3.84349L4.28362 3.42817C4.39909 3.31218 4.58672 3.31177 4.70269 3.42724C4.70299 3.42754 4.70332 3.42784 4.70362 3.42817L6.01494 4.73949C6.13093 4.85497 6.13134 5.0426 6.01587 5.15856C6.01557 5.15886 6.01527 5.15916 6.01494 5.15949L5.24494 5.92949C5.024 6.14802 4.99622 6.49529 5.17962 6.74617C5.45811 7.12838 5.7663 7.48803 6.10129 7.82184C6.47478 8.19695 6.88081 8.53817 7.31462 8.84152C7.56528 9.01636 7.90511 8.98688 8.12194 8.77152L8.86627 8.01552C8.98174 7.89953 9.16937 7.89912 9.28534 8.01459C9.28564 8.01489 9.28594 8.01519 9.28626 8.01552L10.5999 9.33152C10.716 9.44697 10.7164 9.63457 10.6009 9.75056Z" fill="#F15C5C"/>
</g>
<defs>
<clipPath id="clip0_10_98">
<rect width="14" height="14" fill="white"/>
</clipPath>
</defs>
</svg>
