<svg width="46" height="46" viewBox="0 0 46 46" fill="none" xmlns="http://www.w3.org/2000/svg">
<path d="M23 46C35.7025 46 46 35.7025 46 23C46 10.2975 35.7025 0 23 0C10.2975 0 0 10.2975 0 23C0 35.7025 10.2975 46 23 46Z" fill="#1A77C7"/>
<path d="M31.7619 21.0087C31.7619 27.9784 23 33.9524 23 33.9524C23 33.9524 14.2381 27.9784 14.2381 21.0087C14.2381 18.632 15.1612 16.3528 16.8044 14.6723C18.4476 12.9917 20.6762 12.0476 23 12.0476C25.3238 12.0476 27.5524 12.9917 29.1956 14.6723C30.8388 16.3528 31.7619 18.632 31.7619 21.0087Z" stroke="white" stroke-width="2" stroke-linecap="round" stroke-linejoin="round"/>
<path d="M23 24.0952C24.8147 24.0952 26.2857 22.6242 26.2857 20.8095C26.2857 18.9949 24.8147 17.5238 23 17.5238C21.1854 17.5238 19.7143 18.9949 19.7143 20.8095C19.7143 22.6242 21.1854 24.0952 23 24.0952Z" stroke="white" stroke-width="2" stroke-linecap="round" stroke-linejoin="round"/>
</svg>
