<svg width="60" height="60" viewBox="0 0 60 60" fill="none" xmlns="http://www.w3.org/2000/svg">
<path d="M22.8 48.1C19.4 47 16.2 45.1 13.7 42.6C13.4 42.3 13.1 42 12.8 41.7C12.6 41.4 12.1 41.5 11.9 41.8L7.2 52.9C7 53.2 7 53.6 7 53.9C7 54.3 7.2 54.6 7.4 54.9C7.6 55.2 7.9 55.5 8.2 55.6C8.5 55.9 8.9 56 9.3 56H22.8C23.2 56 23.5 55.9 23.9 55.7C24.2 55.5 24.5 55.3 24.7 55C24.9 54.7 25 54.3 25.1 54C25.1 53.6 25.1 53.3 24.9 52.9L22.8 48.1ZM36 13.1C35.5 13 35 13.5 35 14V16.5C35 17.1 35.5 17.5 36 17.6C36.8 17.8 37.6 18.2 38.2 18.8C38.8 19.4 39.2 20.2 39.4 21C39.5 21.5 40 22 40.5 22H43C43.6 22 44 21.6 43.9 21C43.7 19 42.8 17.1 41.3 15.6C39.8 14.1 38 13.3 36 13.1ZM36 4C35.4 4 35 4.4 35 5V7.5C35 8.1 35.4 8.5 36 8.5C39.2 8.7 42.2 10.1 44.5 12.4C46.8 14.7 48.2 17.7 48.4 20.9C48.4 21.5 48.9 21.9 49.4 21.9H52C52.6 21.9 53 21.5 53 20.9C52.8 16.5 50.9 12.3 47.8 9.2C44.6 6.1 40.4 4.3 36 4ZM16.2 13.6C16 13.4 15.7 13.2 15.4 13.1C15.2 13 14.8 13 14.5 13C14.2 13 13.9 13.1 13.6 13.3C13.3 13.4 13.1 13.7 12.9 13.9C7.1 21.6 7.7 33.3 14.6 40.3C16.4 42.1 18.5 43.5 20.9 44.5C23.3 45.5 25.8 46 28.3 46C32.5 46 36.7 44 40.2 41.2C40.4 41 40.6 40.8 40.8 40.5C41 40.2 41 39.9 41 39.6C41 39.3 41 39 40.9 38.7C40.8 38.4 40.6 38.2 40.4 37.9L16.2 13.6ZM37 22.2C37 21.9 37 21.6 36.9 21.3C36.8 21 36.6 20.8 36.4 20.5C36.2 20.3 35.9 20.1 35.6 20C35.4 20 35.1 20 34.8 20L28 21C27.6 21.1 27.4 21.6 27.7 21.8L35.2 29.3C35.5 29.6 36 29.4 36 29L37 22.2Z" fill="url(#paint0_linear_57_582)"/>
<defs>
<linearGradient id="paint0_linear_57_582" x1="7" y1="30.0137" x2="52.9726" y2="30.0137" gradientUnits="userSpaceOnUse">
<stop stop-color="#1A77C7"/>
<stop offset="1" stop-color="#00B6DE"/>
</linearGradient>
</defs>
</svg>
