<svg width="82" height="26" viewBox="0 0 82 26" fill="none" xmlns="http://www.w3.org/2000/svg">
<g clip-path="url(#clip0_774:235)">
<path d="M0 0.160645H12.0069L22.6082 19.7973L23.8129 17.5887L24.4153 18.7532L21.002 25.9412C21.002 25.9412 10.24 7.26838 8.71401 4.05585C8.31244 3.33302 6.26445 0.923622 0.602351 1.32519L0 0.160645Z" fill="white"/>
<path d="M19.9177 7.83057C19.9177 7.83057 23.4114 11.1636 27.8688 11.3242L25.0578 17.1469L19.9177 7.83057Z" fill="#C1CD23"/>
<path d="M13.8942 -0.28125C13.8942 -0.28125 26.0216 6.18398 31.5632 1.60612L28.431 9.31621C28.3908 9.31621 23.6925 10.1193 13.8942 -0.28125Z" fill="#00B6DE"/>
<path d="M45.2967 6.62578L48.7502 3.21246C48.7502 3.21246 46.2203 0.0400797 40.5181 0.0400797C40.5181 0.0400797 33.0489 -0.4418 31.523 6.1439C31.3222 7.54939 30.6395 12.328 35.4985 14.376C35.4985 14.376 36.4221 14.9382 41.1204 15.5004C41.9236 15.5807 44.4535 15.902 43.8913 18.9137C43.7306 19.757 42.6464 21.5239 38.3898 20.9617C38.3898 20.9617 35.5387 20.7609 33.8119 18.7933L30.2781 22.3271C30.2781 22.3271 32.7679 25.4994 37.9481 25.8207C39.6748 25.9412 47.5455 26.423 49.1518 19.5161C49.3124 17.8295 49.9951 11.8462 43.0078 10.6816C40.4779 10.1194 36.2213 10.6816 36.6631 7.18797C36.6631 7.18797 36.8237 4.57779 40.7992 4.81873C41.6023 4.85889 43.5298 4.73841 45.2967 6.62578Z" fill="white"/>
<path d="M50.1959 0.280762H58.9902V25.9007H53.6092V5.26019C53.6092 5.26019 53.6092 1.12405 50.1959 1.40515V0.280762Z" fill="white"/>
<path d="M81.6788 5.78221C79.7914 0.120109 73.8884 0.280736 73.8884 0.280736H61.0382V1.36497C64.3712 1.04371 64.4515 5.09954 64.4515 5.09954V25.8606H69.3105V16.3836H73.808C83.0441 15.7411 82.3213 7.62942 81.6788 5.78221ZM73.4466 11.4443H69.3506V5.17986H73.5269C73.5269 5.17986 75.6954 5.17986 76.4182 7.06722C76.619 7.5491 77.382 11.2034 73.4466 11.4443Z" fill="white"/>
</g>
<defs>
<clipPath id="clip0_774:235">
<rect width="82" height="25.9412" fill="white"/>
</clipPath>
</defs>
</svg>
