<svg width="60" height="60" viewBox="0 0 60 60" fill="none" xmlns="http://www.w3.org/2000/svg">
<path d="M40.6 13C39.7 14.2 39 15.4 39 15.9C39 16.8 39.7 17.5 40.6 17.5C41.5 17.5 42.2 16.8 42.2 15.9C42.3 15.4 41.6 14.2 40.6 13ZM53.5 53V5C53.5 4.4 53.1 4 52.5 4H28.4C27.8 4 27.4 4.4 27.4 5V22H13.9V28.1L6.9 32.4V37.2C6.9 37.8 7.3 38.2 7.9 38.2H23C23.6 38.2 24 37.8 24 37.2V32.4L17 28.1V25.1H27.5V53H24V42.3C24 41.7 23.6 41.3 23 41.3H7.8C7.2 41.3 6.8 41.7 6.8 42.3V53H5C4.4 53 4 53.4 4 54V55C4 55.6 4.4 56 5 56H55C55.6 56 56 55.6 56 55V54C56 53.4 55.6 53 55 53H53.5ZM20.9 53H9.9V50H20.9V53ZM37.6 11.6C38.5 10.4 39.3 9.5 39.3 9.4L40.4 8.1L41.5 9.4C41.5 9.4 42.4 10.4 43.2 11.6C44.9 14 45.1 15.2 45.1 15.9C45.1 18.5 43 20.7 40.3 20.7C37.6 20.7 35.5 18.6 35.5 15.9C35.7 15.2 35.9 14 37.6 11.6ZM34.6 24.6H37.6V28.9H34.6V24.6ZM34.6 32.2H37.6V36.5H34.6V32.2ZM46.3 53H43.3V44.6H37.7V53H34.7V41.5H46.4V53H46.3ZM46.3 36.5H43.3V32.2H46.3V36.5ZM46.3 28.9H43.3V24.6H46.3V28.9Z" fill="url(#paint0_linear_57_584)"/>
<defs>
<linearGradient id="paint0_linear_57_584" x1="4" y1="30" x2="56" y2="30" gradientUnits="userSpaceOnUse">
<stop stop-color="#1A77C7"/>
<stop offset="1" stop-color="#00B6DE"/>
</linearGradient>
</defs>
</svg>
